<svg aria-hidden="true" style="width:0;height:0;position:absolute;overflow:hidden" xmlns="http://www.w3.org/2000/svg"><defs><symbol id="node-js" viewBox="0 0 32 32"><path fill="#8cc84b" style="fill:var(--color1,#8cc84b)" d="M17.172 2.299a2.454 2.454 0 0 0-2.346 0C11.268 4.263 7.71 6.227 4.151 8.189c-.692.364-1.16 1.108-1.152 1.88v11.864c-.005.787.486 1.538 1.196 1.897 1.022.544 2.015 1.143 3.056 1.65 1.202.591 2.706.721 3.923.105.988-.511 1.426-1.646 1.425-2.689.008-3.915.001-7.831.003-11.746.024-.174-.107-.36-.297-.356-.455-.007-.91-.004-1.365-.001-.172-.016-.339.127-.326.299-.006 3.89.001 7.782-.004 11.672a1.319 1.319 0 0 1-.872 1.237c-1.198.42-4.617-1.8-4.617-1.8a.338.338 0 0 1-.193-.329V10.13a.361.361 0 0 1 .225-.364c3.546-1.952 7.091-3.909 10.637-5.862a.384.384 0 0 1 .418.001c3.546 1.953 7.091 3.908 10.638 5.86a.368.368 0 0 1 .224.366c-.001 3.914.001 7.828-.001 11.742a.337.337 0 0 1-.19.334c-3.513 1.941-7.066 3.82-10.548 5.818-.152.087-.324.186-.494.09-.915-.506-1.82-1.032-2.732-1.544-.099-.062-.226-.088-.329-.019-.409.216-.794.39-1.264.576-.66.261-.554.368.041.715 1.067.604 2.136 1.205 3.203 1.81.703.438 1.646.47 2.372.064 3.559-1.961 7.116-3.925 10.675-5.886.708-.361 1.202-1.109 1.197-1.897V10.07c.007-.756-.442-1.487-1.114-1.856-3.57-1.973-7.143-3.942-10.713-5.914z"/><path fill="#8cc84b" style="fill:var(--color1,#8cc84b)" d="M22.542 11.206c-1.397-.747-3.058-.787-4.61-.689-1.121.111-2.301.42-3.117 1.224-.838.808-1.02 2.113-.622 3.168.285.745 1.003 1.23 1.745 1.486.956.338 1.961.442 2.965.546.916.095 1.833.191 2.714.463.36.119.779.302.889.693.102.464-.01 1.003-.386 1.325-1.196.946-4.521.801-5.703.056-.478-.317-.683-.879-.767-1.414-.009-.167-.144-.32-.325-.307a77.182 77.182 0 0 0-1.361-.001c-.158-.013-.323.099-.331.261-.093 2.452 2.159 3.52 4.271 3.756 1.207.115 2.44.108 3.629-.151.893-.203 1.789-.578 2.404-1.266.758-.836.907-2.081.567-3.123-.26-.777-1.003-1.276-1.763-1.532-1.033-.354-2.257-.545-3.193-.634-1.36-.13-2.976-.077-3.361-.97-.154-.468-.023-1.049.407-1.337 1.138-.772 3.453-.669 4.631-.093.541.271.855.827.984 1.389.024.165.135.337.326.33.45.009.901.002 1.351.003.155.011.324-.076.354-.235-.019-1.174-.619-2.376-1.7-2.948z"/></symbol><symbol id="react" viewBox="0 0 32 32"><path fill="#53c1de" style="fill:var(--color2,#53c1de)" d="M18.679 15.976c0-1.434-1.199-2.597-2.679-2.597s-2.679 1.163-2.679 2.597c0 1.435 1.2 2.597 2.679 2.597s2.679-1.163 2.679-2.598z"/><path fill="#53c1de" style="fill:var(--color2,#53c1de)" d="M24.7 11.154c.566-2.229 1.277-6.362-1.23-7.764-2.495-1.395-5.742 1.278-7.457 2.883-1.71-1.589-5.048-4.251-7.552-2.845-2.494 1.4-1.725 5.465-1.147 7.708-2.327.641-6.315 2.021-6.315 4.84 0 2.811 3.984 4.313 6.297 4.953-.58 2.255-1.311 6.262 1.186 7.659 2.514 1.405 5.842-1.193 7.572-2.816 1.726 1.614 4.941 4.23 7.437 2.829 2.503-1.405 1.851-5.483 1.273-7.739 2.242-.642 6.235-2.11 6.235-4.887 0-2.792-4.01-4.184-6.3-4.822zm-.284 8.513a28.69 28.69 0 0 0-1.519-3.685 28.66 28.66 0 0 0 1.46-3.631c1.679.472 5.361 1.55 5.361 3.625 0 2.094-3.534 3.183-5.302 3.691zm-1.566 7.859c-1.862 1.045-4.628-1.456-5.902-2.645a29.446 29.446 0 0 0 2.515-3.096c1.45-.125 2.82-.329 4.063-.607.407 1.596 1.195 5.299-.676 6.348zm-13.726-.015c-1.862-1.041-1.011-4.617-.584-6.278 1.229.264 2.589.453 4.043.567a30.545 30.545 0 0 0 2.575 3.085c-1.082 1.015-4.163 3.671-6.034 2.625zM2.281 15.976c0-2.102 3.661-3.173 5.378-3.643a29.236 29.236 0 0 0 1.462 3.674 29.666 29.666 0 0 0-1.48 3.726c-1.637-.454-5.359-1.653-5.359-3.756zM9.104 4.504c1.87-1.049 4.771 1.506 6.012 2.657a30.003 30.003 0 0 0-2.556 3.066c-1.411.127-2.762.33-4.003.603-.466-1.809-1.321-5.278.547-6.326zm11.275 7.073c.957.117 1.874.273 2.735.463a26.376 26.376 0 0 1-.96 2.505 41.232 41.232 0 0 0-1.775-2.968zm-4.365-3.529a26.77 26.77 0 0 1 1.765 2.066 39.192 39.192 0 0 0-3.546-.001 27.78 27.78 0 0 1 1.78-2.066zm-6.157 6.496a26.697 26.697 0 0 1-.953-2.517 29.596 29.596 0 0 1 2.72-.453 36.46 36.46 0 0 0-1.767 2.97zm1.793 5.922a27.907 27.907 0 0 1-2.765-.431c.265-.829.591-1.691.972-2.568a36.684 36.684 0 0 0 1.792 2.999zm4.4 3.525a28.401 28.401 0 0 1-1.805-2.094c1.188.045 2.378.045 3.566-.006a26.6 26.6 0 0 1-1.761 2.101zm6.117-6.569c.401.886.739 1.744 1.008 2.559-.87.192-1.809.348-2.799.463a41.416 41.416 0 0 0 1.791-3.021zm-3.42 3.172a41.324 41.324 0 0 1-5.463.01 34.903 34.903 0 0 1-2.746-4.599 34.94 34.94 0 0 1 2.731-4.59 37.252 37.252 0 0 1 5.469.001 39.063 39.063 0 0 1 2.739 4.572 39.21 39.21 0 0 1-2.728 4.606zM22.83 4.467c1.87 1.046 1.038 4.761.629 6.376a31.553 31.553 0 0 0-4.011-.614 29.299 29.299 0 0 0-2.536-3.069c1.257-1.175 4.066-3.729 5.918-2.693z"/></symbol><symbol id="javascript" viewBox="0 0 32 32"><path fill="#f7df1e" style="fill:var(--color3,#f7df1e)" d="M0 0h32v32H0V0z"/><path style="fill:var(--color4,#000)" d="M20.25 23.125c.625 1.063 1.5 1.813 2.938 1.813 1.25 0 2.063-.625 2.063-1.5 0-1-.813-1.375-2.188-2l-.75-.313c-2.188-.938-3.625-2.063-3.625-4.5 0-2.25 1.688-4 4.375-4 1.938 0 3.313.688 4.25 2.438L25 16.563c-.5-.938-1.063-1.313-1.938-1.313s-1.438.563-1.438 1.313c0 .875.563 1.25 1.875 1.813l.75.313c2.563 1.125 4 2.188 4 4.75 0 2.688-2.125 4.188-5 4.188-2.813 0-4.625-1.313-5.5-3.063zm-10.625.25c.5.813.875 1.563 1.938 1.563 1 0 1.625-.375 1.625-1.875V12.688h3v10.25c0 3.125-1.813 4.5-4.5 4.5-2.438 0-3.813-1.25-4.5-2.75z"/></symbol><symbol id="html" viewBox="0 0 32 32"><path fill="#e44d26" style="fill:var(--color5,#e44d26)" d="m27.307 6.273-2.06 23.079-9.26 2.567-9.235-2.564L4.694 6.272h22.614z"/><path fill="#f16529" style="fill:var(--color6,#f16529)" d="m16 29.957 7.483-2.075L25.244 8.16h-9.243v21.797z"/><path fill="#ebebeb" style="fill:var(--color7,#ebebeb)" d="M11.995 13.822H16v-2.831H8.901l.068.759.696 7.801H16V16.72h-3.746l-.259-2.899zM12.633 20.968H9.791l.397 4.445 5.799 1.61.013-.004v-2.945l-.012.003-3.153-.851-.202-2.258z"/><path style="fill:var(--color4,#000)" d="M6.797 0h1.439v1.421h1.316V0h1.439v4.304H9.552V2.863H8.236v1.441H6.797V0zM12.883 1.427h-1.267V0h3.972v1.427h-1.267v2.877h-1.439V1.427zM16.219 0h1.5l.923 1.512L19.564 0h1.501v4.304h-1.433V2.171l-.99 1.53h-.025l-.991-1.53v2.133h-1.408V0zM21.78 0h1.439v2.882h2.023v1.423H21.78V.001z"/><path fill="#fff" style="fill:var(--color8,#fff)" d="M15.99 19.552h3.486l-.329 3.672-3.157.852v2.945l5.804-1.608.043-.478.665-7.453.069-.76H15.99v2.831zM15.99 13.815v.007h6.838l.057-.636.129-1.435.068-.759H15.99v2.824z"/></symbol></defs></svg>