<svg aria-hidden="true" style="position: absolute; width: 0; height: 0; overflow: hidden;" version="1.1" xmlns="http://www.w3.org/2000/svg" xmlns:xlink="http://www.w3.org/1999/xlink">
<defs>
<symbol id="node-js" viewBox="0 0 32 32">
<path fill="#8cc84b" style="fill: var(--color1, #8cc84b)" d="M17.172 2.299c-0.71-0.399-1.635-0.397-2.346 0-3.558 1.964-7.116 3.928-10.675 5.89-0.692 0.364-1.16 1.108-1.152 1.88v11.864c-0.005 0.787 0.486 1.538 1.196 1.897 1.022 0.544 2.015 1.143 3.056 1.65 1.202 0.591 2.706 0.721 3.923 0.105 0.988-0.511 1.426-1.646 1.425-2.689 0.008-3.915 0.001-7.831 0.003-11.746 0.024-0.174-0.107-0.36-0.297-0.356-0.455-0.007-0.91-0.004-1.365-0.001-0.172-0.016-0.339 0.127-0.326 0.299-0.006 3.89 0.001 7.782-0.004 11.672 0.010 0.538-0.354 1.055-0.872 1.237-1.198 0.42-4.617-1.8-4.617-1.8-0.125-0.058-0.205-0.194-0.193-0.329 0-3.914 0.001-7.829 0-11.742-0.017-0.158 0.080-0.3 0.225-0.364 3.546-1.952 7.091-3.909 10.637-5.862 0.123-0.082 0.295-0.082 0.418 0.001 3.546 1.953 7.091 3.908 10.638 5.86 0.145 0.064 0.238 0.209 0.224 0.366-0.001 3.914 0.001 7.828-0.001 11.742 0.011 0.139-0.061 0.273-0.19 0.334-3.513 1.941-7.066 3.82-10.548 5.818-0.152 0.087-0.324 0.186-0.494 0.090-0.915-0.506-1.82-1.032-2.732-1.544-0.099-0.062-0.226-0.088-0.329-0.019-0.409 0.216-0.794 0.39-1.264 0.576-0.66 0.261-0.554 0.368 0.041 0.715 1.067 0.604 2.136 1.205 3.203 1.81 0.703 0.438 1.646 0.47 2.372 0.064 3.559-1.961 7.116-3.925 10.675-5.886 0.708-0.361 1.202-1.109 1.197-1.897v-11.864c0.007-0.756-0.442-1.487-1.114-1.856-3.57-1.973-7.143-3.942-10.713-5.914z"></path>
<path fill="#8cc84b" style="fill: var(--color1, #8cc84b)" d="M22.542 11.206c-1.397-0.747-3.058-0.787-4.61-0.689-1.121 0.111-2.301 0.42-3.117 1.224-0.838 0.808-1.020 2.113-0.622 3.168 0.285 0.745 1.003 1.23 1.745 1.486 0.956 0.338 1.961 0.442 2.965 0.546 0.916 0.095 1.833 0.191 2.714 0.463 0.36 0.119 0.779 0.302 0.889 0.693 0.102 0.464-0.010 1.003-0.386 1.325-1.196 0.946-4.521 0.801-5.703 0.056-0.478-0.317-0.683-0.879-0.767-1.414-0.009-0.167-0.144-0.32-0.325-0.307-0.454-0.005-0.907-0.004-1.361-0.001-0.158-0.013-0.323 0.099-0.331 0.261-0.093 2.452 2.159 3.52 4.271 3.756 1.207 0.115 2.44 0.108 3.629-0.151 0.893-0.203 1.789-0.578 2.404-1.266 0.758-0.836 0.907-2.081 0.567-3.123-0.26-0.777-1.003-1.276-1.763-1.532-1.033-0.354-2.257-0.545-3.193-0.634-1.36-0.13-2.976-0.077-3.361-0.97-0.154-0.468-0.023-1.049 0.407-1.337 1.138-0.772 3.453-0.669 4.631-0.093 0.541 0.271 0.855 0.827 0.984 1.389 0.024 0.165 0.135 0.337 0.326 0.33 0.45 0.009 0.901 0.002 1.351 0.003 0.155 0.011 0.324-0.076 0.354-0.235-0.019-1.174-0.619-2.376-1.7-2.948z"></path>
</symbol>
<symbol id="react" viewBox="0 0 32 32">
<path fill="#53c1de" style="fill: var(--color2, #53c1de)" d="M18.679 15.976c0-1.434-1.199-2.597-2.679-2.597s-2.679 1.163-2.679 2.597c0 1.435 1.2 2.597 2.679 2.597s2.679-1.163 2.679-2.598z"></path>
<path fill="#53c1de" style="fill: var(--color2, #53c1de)" d="M24.7 11.154c0.566-2.229 1.277-6.362-1.23-7.764-2.495-1.395-5.742 1.278-7.457 2.883-1.71-1.589-5.048-4.251-7.552-2.845-2.494 1.4-1.725 5.465-1.147 7.708-2.327 0.641-6.315 2.021-6.315 4.84 0 2.811 3.984 4.313 6.297 4.953-0.58 2.255-1.311 6.262 1.186 7.659 2.514 1.405 5.842-1.193 7.572-2.816 1.726 1.614 4.941 4.23 7.437 2.829 2.503-1.405 1.851-5.483 1.273-7.739 2.242-0.642 6.235-2.11 6.235-4.887 0-2.792-4.010-4.184-6.3-4.822zM24.416 19.667c-0.38-1.165-0.892-2.405-1.519-3.685 0.598-1.25 1.091-2.473 1.46-3.631 1.679 0.472 5.361 1.55 5.361 3.625 0 2.094-3.534 3.183-5.302 3.691zM22.85 27.526c-1.862 1.045-4.628-1.456-5.902-2.645 0.845-0.896 1.69-1.939 2.515-3.096 1.45-0.125 2.82-0.329 4.063-0.607 0.407 1.596 1.195 5.299-0.676 6.348zM9.124 27.511c-1.862-1.041-1.011-4.617-0.584-6.278 1.229 0.264 2.589 0.453 4.043 0.567 0.83 1.132 1.699 2.173 2.575 3.085-1.082 1.015-4.163 3.671-6.034 2.625zM2.281 15.976c0-2.102 3.661-3.173 5.378-3.643 0.375 1.184 0.868 2.422 1.462 3.674-0.602 1.27-1.101 2.528-1.48 3.726-1.637-0.454-5.359-1.653-5.359-3.756zM9.104 4.504c1.87-1.049 4.771 1.506 6.012 2.657-0.871 0.907-1.733 1.94-2.556 3.066-1.411 0.127-2.762 0.33-4.003 0.603-0.466-1.809-1.321-5.278 0.547-6.326zM20.379 11.577c0.957 0.117 1.874 0.273 2.735 0.463-0.259 0.803-0.581 1.643-0.96 2.505-0.55-1.012-1.141-2.004-1.775-2.968zM16.014 8.048c0.591 0.621 1.183 1.314 1.765 2.066-1.181-0.054-2.364-0.054-3.546-0.001 0.583-0.745 1.18-1.438 1.78-2.066zM9.857 14.544c-0.373-0.858-0.693-1.702-0.953-2.517 0.856-0.186 1.769-0.338 2.72-0.453-0.636 0.962-1.226 1.954-1.767 2.97zM11.65 20.466c-0.982-0.106-1.909-0.25-2.765-0.431 0.265-0.829 0.591-1.691 0.972-2.568 0.548 1.026 1.147 2.027 1.792 2.999zM16.050 23.991c-0.607-0.636-1.213-1.338-1.805-2.094 1.188 0.045 2.378 0.045 3.566-0.006-0.584 0.77-1.174 1.474-1.761 2.101zM22.167 17.422c0.401 0.886 0.739 1.744 1.008 2.559-0.87 0.192-1.809 0.348-2.799 0.463 0.639-0.983 1.239-1.99 1.791-3.021zM18.747 20.594c-1.817 0.126-3.646 0.125-5.463 0.010-1.033-1.463-1.952-3.001-2.746-4.599 0.79-1.594 1.703-3.129 2.731-4.59 1.819-0.133 3.649-0.134 5.469 0.001 1.019 1.46 1.931 2.992 2.739 4.572-0.799 1.593-1.716 3.132-2.728 4.606zM22.83 4.467c1.87 1.046 1.038 4.761 0.629 6.376-1.245-0.278-2.596-0.486-4.011-0.614-0.824-1.138-1.678-2.173-2.536-3.069 1.257-1.175 4.066-3.729 5.918-2.693z"></path>
</symbol>
<symbol id="javascript" viewBox="0 0 32 32">
<path fill="#f7df1e" style="fill: var(--color3, #f7df1e)" d="M0 0h32v32h-32v-32z"></path>
<path fill="#000" style="fill: var(--color4, #000)" d="M20.25 23.125c0.625 1.063 1.5 1.813 2.938 1.813 1.25 0 2.063-0.625 2.063-1.5 0-1-0.813-1.375-2.188-2l-0.75-0.313c-2.188-0.938-3.625-2.063-3.625-4.5 0-2.25 1.688-4 4.375-4 1.938 0 3.313 0.688 4.25 2.438l-2.313 1.5c-0.5-0.938-1.063-1.313-1.938-1.313s-1.438 0.563-1.438 1.313c0 0.875 0.563 1.25 1.875 1.813l0.75 0.313c2.563 1.125 4 2.188 4 4.75 0 2.688-2.125 4.188-5 4.188-2.813 0-4.625-1.313-5.5-3.063zM9.625 23.375c0.5 0.813 0.875 1.563 1.938 1.563 1 0 1.625-0.375 1.625-1.875v-10.375h3v10.25c0 3.125-1.813 4.5-4.5 4.5-2.438 0-3.813-1.25-4.5-2.75z"></path>
</symbol>
<symbol id="html" viewBox="0 0 32 32">
<path fill="#e44d26" style="fill: var(--color5, #e44d26)" d="M27.307 6.273l-2.060 23.079-9.26 2.567-9.235-2.564-2.058-23.083h22.614z"></path>
<path fill="#f16529" style="fill: var(--color6, #f16529)" d="M16 29.957l7.483-2.075 1.761-19.722h-9.243v21.797z"></path>
<path fill="#ebebeb" style="fill: var(--color7, #ebebeb)" d="M11.995 13.822h4.005v-2.831h-7.099l0.068 0.759 0.696 7.801h6.335v-2.831h-3.746l-0.259-2.899z"></path>
<path fill="#ebebeb" style="fill: var(--color7, #ebebeb)" d="M12.633 20.968h-2.842l0.397 4.445 5.799 1.61 0.013-0.004v-2.945l-0.012 0.003-3.153-0.851-0.202-2.258z"></path>
<path fill="#000" style="fill: var(--color4, #000)" d="M6.797 0h1.439v1.421h1.316v-1.421h1.439v4.304h-1.439v-1.441h-1.316v1.441h-1.439v-4.304h-0z"></path>
<path fill="#000" style="fill: var(--color4, #000)" d="M12.883 1.427h-1.267v-1.427h3.972v1.427h-1.267v2.877h-1.439v-2.877h-0z"></path>
<path fill="#000" style="fill: var(--color4, #000)" d="M16.219 0h1.5l0.923 1.512 0.922-1.512h1.501v4.304h-1.433v-2.133l-0.99 1.53h-0.025l-0.991-1.53v2.133h-1.408v-4.304z"></path>
<path fill="#000" style="fill: var(--color4, #000)" d="M21.78 0h1.439v2.882h2.023v1.423h-3.462v-4.304z"></path>
<path fill="#fff" style="fill: var(--color8, #fff)" d="M15.99 19.552h3.486l-0.329 3.672-3.157 0.852v2.945l5.804-1.608 0.043-0.478 0.665-7.453 0.069-0.76h-6.581v2.831z"></path>
<path fill="#fff" style="fill: var(--color8, #fff)" d="M15.99 13.815v0.007h6.838l0.057-0.636 0.129-1.435 0.068-0.759h-7.092v2.824z"></path>
</symbol>
</defs>
</svg>
